<svg xmlns="http://www.w3.org/2000/svg" width="806" height="188" viewBox="0 0 806 188" role="img" font-family="ui-sans-serif,-apple-system,BlinkMacSystemFont,'Segoe UI',Roboto,'Helvetica Neue',Arial,sans-serif"><rect width="806" height="188" rx="10" fill="#050505" stroke="#242424" stroke-width="1"/><text x="22" y="34" fill="#e51d2a" font-size="15" font-weight="700">Contribution activity · last 12 months</text><text x="784" y="34" fill="#8c8c8c" font-size="11" text-anchor="end">982 contributions</text><text x="34" y="44" fill="#8c8c8c" font-size="10">Sep</text><rect x="34" y="52" width="11" height="11" rx="2.5" fill="#161616"><title>2025-09-14: 0</title></rect><rect x="34" y="66" width="11" height="11" rx="2.5" fill="#161616"><title>2025-09-15: 0</title></rect><rect x="34" y="80" width="11" height="11" rx="2.5" fill="#4a0f14"><title>2025-09-16: 1</title></rect><rect x="34" y="94" width="11" height="11" rx="2.5" fill="#161616"><title>2025-09-17: 0</title></rect><rect x="34" y="108" width="11" height="11" rx="2.5" fill="#161616"><title>2025-09-18: 0</title></rect><rect x="34" y="122" width="11" height="11" rx="2.5" fill="#161616"><title>2025-09-19: 0</title></rect><rect x="34" y="136" width="11" height="11" rx="2.5" fill="#161616"><title>2025-09-20: 0</title></rect><rect x="48" y="52" width="11" height="11" rx="2.5" fill="#161616"><title>2025-09-21: 0</title></rect><rect x="48" y="66" width="11" height="11" rx="2.5" fill="#161616"><title>2025-09-22: 0</title></rect><rect x="48" y="80" width="11" height="11" rx="2.5" fill="#161616"><title>2025-09-23: 0</title></rect><rect x="48" y="94" width="11" height="11" rx="2.5" fill="#161616"><title>2025-09-24: 0</title></rect><rect x="48" y="108" width="11" height="11" rx="2.5" fill="#161616"><title>2025-09-25: 0</title></rect><rect x="48" y="122" width="11" height="11" rx="2.5" fill="#161616"><title>2025-09-26: 0</title></rect><rect x="48" y="136" width="11" height="11" rx="2.5" fill="#161616"><title>2025-09-27: 0</title></rect><rect x="62" y="52" width="11" height="11" rx="2.5" fill="#161616"><title>2025-09-28: 0</title></rect><rect x="62" y="66" width="11" height="11" rx="2.5" fill="#161616"><title>2025-09-29: 0</title></rect><rect x="62" y="80" width="11" height="11" rx="2.5" fill="#4a0f14"><title>2025-09-30: 2</title></rect><rect x="62" y="94" width="11" height="11" rx="2.5" fill="#161616"><title>2025-10-01: 0</title></rect><rect x="62" y="108" width="11" height="11" rx="2.5" fill="#4a0f14"><title>2025-10-02: 2</title></rect><rect x="62" y="122" width="11" height="11" rx="2.5" fill="#4a0f14"><title>2025-10-03: 1</title></rect><rect x="62" y="136" width="11" height="11" rx="2.5" fill="#4a0f14"><title>2025-10-04: 1</title></rect><text x="76" y="44" fill="#8c8c8c" font-size="10">Oct</text><rect x="76" y="52" width="11" height="11" rx="2.5" fill="#161616"><title>2025-10-05: 0</title></rect><rect x="76" y="66" width="11" height="11" rx="2.5" fill="#161616"><title>2025-10-06: 0</title></rect><rect x="76" y="80" width="11" height="11" rx="2.5" fill="#161616"><title>2025-10-07: 0</title></rect><rect x="76" y="94" width="11" height="11" rx="2.5" fill="#161616"><title>2025-10-08: 0</title></rect><rect x="76" y="108" width="11" height="11" rx="2.5" fill="#161616"><title>2025-10-09: 0</title></rect><rect x="76" y="122" width="11" height="11" rx="2.5" fill="#161616"><title>2025-10-10: 0</title></rect><rect x="76" y="136" width="11" height="11" rx="2.5" fill="#161616"><title>2025-10-11: 0</title></rect><rect x="90" y="52" width="11" height="11" rx="2.5" fill="#161616"><title>2025-10-12: 0</title></rect><rect x="90" y="66" width="11" height="11" rx="2.5" fill="#4a0f14"><title>2025-10-13: 2</title></rect><rect x="90" y="80" width="11" height="11" rx="2.5" fill="#161616"><title>2025-10-14: 0</title></rect><rect x="90" y="94" width="11" height="11" rx="2.5" fill="#161616"><title>2025-10-15: 0</title></rect><rect x="90" y="108" width="11" height="11" rx="2.5" fill="#161616"><title>2025-10-16: 0</title></rect><rect x="90" y="122" width="11" height="11" rx="2.5" fill="#161616"><title>2025-10-17: 0</title></rect><rect x="90" y="136" width="11" height="11" rx="2.5" fill="#161616"><title>2025-10-18: 0</title></rect><rect x="104" y="52" width="11" height="11" rx="2.5" fill="#161616"><title>2025-10-19: 0</title></rect><rect x="104" y="66" width="11" height="11" rx="2.5" fill="#161616"><title>2025-10-20: 0</title></rect><rect x="104" y="80" width="11" height="11" rx="2.5" fill="#161616"><title>2025-10-21: 0</title></rect><rect x="104" y="94" width="11" height="11" rx="2.5" fill="#161616"><title>2025-10-22: 0</title></rect><rect x="104" y="108" width="11" height="11" rx="2.5" fill="#161616"><title>2025-10-23: 0</title></rect><rect x="104" y="122" width="11" height="11" rx="2.5" fill="#4a0f14"><title>2025-10-24: 1</title></rect><rect x="104" y="136" width="11" height="11" rx="2.5" fill="#161616"><title>2025-10-25: 0</title></rect><rect x="118" y="52" width="11" height="11" rx="2.5" fill="#161616"><title>2025-10-26: 0</title></rect><rect x="118" y="66" width="11" height="11" rx="2.5" fill="#161616"><title>2025-10-27: 0</title></rect><rect x="118" y="80" width="11" height="11" rx="2.5" fill="#161616"><title>2025-10-28: 0</title></rect><rect x="118" y="94" width="11" height="11" rx="2.5" fill="#161616"><title>2025-10-29: 0</title></rect><rect x="118" y="108" width="11" height="11" rx="2.5" fill="#161616"><title>2025-10-30: 0</title></rect><rect x="118" y="122" width="11" height="11" rx="2.5" fill="#161616"><title>2025-10-31: 0</title></rect><rect x="118" y="136" width="11" height="11" rx="2.5" fill="#161616"><title>2025-11-01: 0</title></rect><text x="132" y="44" fill="#8c8c8c" font-size="10">Nov</text><rect x="132" y="52" width="11" height="11" rx="2.5" fill="#4a0f14"><title>2025-11-02: 1</title></rect><rect x="132" y="66" width="11" height="11" rx="2.5" fill="#161616"><title>2025-11-03: 0</title></rect><rect x="132" y="80" width="11" height="11" rx="2.5" fill="#cc1a26"><title>2025-11-04: 7</title></rect><rect x="132" y="94" width="11" height="11" rx="2.5" fill="#4a0f14"><title>2025-11-05: 1</title></rect><rect x="132" y="108" width="11" height="11" rx="2.5" fill="#161616"><title>2025-11-06: 0</title></rect><rect x="132" y="122" width="11" height="11" rx="2.5" fill="#161616"><title>2025-11-07: 0</title></rect><rect x="132" y="136" width="11" height="11" rx="2.5" fill="#161616"><title>2025-11-08: 0</title></rect><rect x="146" y="52" width="11" height="11" rx="2.5" fill="#161616"><title>2025-11-09: 0</title></rect><rect x="146" y="66" width="11" height="11" rx="2.5" fill="#161616"><title>2025-11-10: 0</title></rect><rect x="146" y="80" width="11" height="11" rx="2.5" fill="#161616"><title>2025-11-11: 0</title></rect><rect x="146" y="94" width="11" height="11" rx="2.5" fill="#161616"><title>2025-11-12: 0</title></rect><rect x="146" y="108" width="11" height="11" rx="2.5" fill="#161616"><title>2025-11-13: 0</title></rect><rect x="146" y="122" width="11" height="11" rx="2.5" fill="#161616"><title>2025-11-14: 0</title></rect><rect x="146" y="136" width="11" height="11" rx="2.5" fill="#161616"><title>2025-11-15: 0</title></rect><rect x="160" y="52" width="11" height="11" rx="2.5" fill="#161616"><title>2025-11-16: 0</title></rect><rect x="160" y="66" width="11" height="11" rx="2.5" fill="#8c141d"><title>2025-11-17: 4</title></rect><rect x="160" y="80" width="11" height="11" rx="2.5" fill="#161616"><title>2025-11-18: 0</title></rect><rect x="160" y="94" width="11" height="11" rx="2.5" fill="#161616"><title>2025-11-19: 0</title></rect><rect x="160" y="108" width="11" height="11" rx="2.5" fill="#161616"><title>2025-11-20: 0</title></rect><rect x="160" y="122" width="11" height="11" rx="2.5" fill="#161616"><title>2025-11-21: 0</title></rect><rect x="160" y="136" width="11" height="11" rx="2.5" fill="#161616"><title>2025-11-22: 0</title></rect><rect x="174" y="52" width="11" height="11" rx="2.5" fill="#161616"><title>2025-11-23: 0</title></rect><rect x="174" y="66" width="11" height="11" rx="2.5" fill="#161616"><title>2025-11-24: 0</title></rect><rect x="174" y="80" width="11" height="11" rx="2.5" fill="#cc1a26"><title>2025-11-25: 13</title></rect><rect x="174" y="94" width="11" height="11" rx="2.5" fill="#161616"><title>2025-11-26: 0</title></rect><rect x="174" y="108" width="11" height="11" rx="2.5" fill="#161616"><title>2025-11-27: 0</title></rect><rect x="174" y="122" width="11" height="11" rx="2.5" fill="#161616"><title>2025-11-28: 0</title></rect><rect x="174" y="136" width="11" height="11" rx="2.5" fill="#8c141d"><title>2025-11-29: 3</title></rect><rect x="188" y="52" width="11" height="11" rx="2.5" fill="#161616"><title>2025-11-30: 0</title></rect><rect x="188" y="66" width="11" height="11" rx="2.5" fill="#161616"><title>2025-12-01: 0</title></rect><rect x="188" y="80" width="11" height="11" rx="2.5" fill="#161616"><title>2025-12-02: 0</title></rect><rect x="188" y="94" width="11" height="11" rx="2.5" fill="#161616"><title>2025-12-03: 0</title></rect><rect x="188" y="108" width="11" height="11" rx="2.5" fill="#161616"><title>2025-12-04: 0</title></rect><rect x="188" y="122" width="11" height="11" rx="2.5" fill="#161616"><title>2025-12-05: 0</title></rect><rect x="188" y="136" width="11" height="11" rx="2.5" fill="#161616"><title>2025-12-06: 0</title></rect><text x="202" y="44" fill="#8c8c8c" font-size="10">Dec</text><rect x="202" y="52" width="11" height="11" rx="2.5" fill="#161616"><title>2025-12-07: 0</title></rect><rect x="202" y="66" width="11" height="11" rx="2.5" fill="#161616"><title>2025-12-08: 0</title></rect><rect x="202" y="80" width="11" height="11" rx="2.5" fill="#161616"><title>2025-12-09: 0</title></rect><rect x="202" y="94" width="11" height="11" rx="2.5" fill="#4a0f14"><title>2025-12-10: 1</title></rect><rect x="202" y="108" width="11" height="11" rx="2.5" fill="#4a0f14"><title>2025-12-11: 2</title></rect><rect x="202" y="122" width="11" height="11" rx="2.5" fill="#161616"><title>2025-12-12: 0</title></rect><rect x="202" y="136" width="11" height="11" rx="2.5" fill="#161616"><title>2025-12-13: 0</title></rect><rect x="216" y="52" width="11" height="11" rx="2.5" fill="#161616"><title>2025-12-14: 0</title></rect><rect x="216" y="66" width="11" height="11" rx="2.5" fill="#161616"><title>2025-12-15: 0</title></rect><rect x="216" y="80" width="11" height="11" rx="2.5" fill="#161616"><title>2025-12-16: 0</title></rect><rect x="216" y="94" width="11" height="11" rx="2.5" fill="#161616"><title>2025-12-17: 0</title></rect><rect x="216" y="108" width="11" height="11" rx="2.5" fill="#4a0f14"><title>2025-12-18: 1</title></rect><rect x="216" y="122" width="11" height="11" rx="2.5" fill="#161616"><title>2025-12-19: 0</title></rect><rect x="216" y="136" width="11" height="11" rx="2.5" fill="#161616"><title>2025-12-20: 0</title></rect><rect x="230" y="52" width="11" height="11" rx="2.5" fill="#161616"><title>2025-12-21: 0</title></rect><rect x="230" y="66" width="11" height="11" rx="2.5" fill="#4a0f14"><title>2025-12-22: 1</title></rect><rect x="230" y="80" width="11" height="11" rx="2.5" fill="#8c141d"><title>2025-12-23: 3</title></rect><rect x="230" y="94" width="11" height="11" rx="2.5" fill="#161616"><title>2025-12-24: 0</title></rect><rect x="230" y="108" width="11" height="11" rx="2.5" fill="#161616"><title>2025-12-25: 0</title></rect><rect x="230" y="122" width="11" height="11" rx="2.5" fill="#161616"><title>2025-12-26: 0</title></rect><rect x="230" y="136" width="11" height="11" rx="2.5" fill="#161616"><title>2025-12-27: 0</title></rect><rect x="244" y="52" width="11" height="11" rx="2.5" fill="#161616"><title>2025-12-28: 0</title></rect><rect x="244" y="66" width="11" height="11" rx="2.5" fill="#4a0f14"><title>2025-12-29: 2</title></rect><rect x="244" y="80" width="11" height="11" rx="2.5" fill="#161616"><title>2025-12-30: 0</title></rect><rect x="244" y="94" width="11" height="11" rx="2.5" fill="#161616"><title>2025-12-31: 0</title></rect><rect x="244" y="108" width="11" height="11" rx="2.5" fill="#161616"><title>2026-01-01: 0</title></rect><rect x="244" y="122" width="11" height="11" rx="2.5" fill="#161616"><title>2026-01-02: 0</title></rect><rect x="244" y="136" width="11" height="11" rx="2.5" fill="#161616"><title>2026-01-03: 0</title></rect><text x="258" y="44" fill="#8c8c8c" font-size="10">Jan</text><rect x="258" y="52" width="11" height="11" rx="2.5" fill="#161616"><title>2026-01-04: 0</title></rect><rect x="258" y="66" width="11" height="11" rx="2.5" fill="#161616"><title>2026-01-05: 0</title></rect><rect x="258" y="80" width="11" height="11" rx="2.5" fill="#4a0f14"><title>2026-01-06: 1</title></rect><rect x="258" y="94" width="11" height="11" rx="2.5" fill="#161616"><title>2026-01-07: 0</title></rect><rect x="258" y="108" width="11" height="11" rx="2.5" fill="#161616"><title>2026-01-08: 0</title></rect><rect x="258" y="122" width="11" height="11" rx="2.5" fill="#161616"><title>2026-01-09: 0</title></rect><rect x="258" y="136" width="11" height="11" rx="2.5" fill="#161616"><title>2026-01-10: 0</title></rect><rect x="272" y="52" width="11" height="11" rx="2.5" fill="#161616"><title>2026-01-11: 0</title></rect><rect x="272" y="66" width="11" height="11" rx="2.5" fill="#161616"><title>2026-01-12: 0</title></rect><rect x="272" y="80" width="11" height="11" rx="2.5" fill="#161616"><title>2026-01-13: 0</title></rect><rect x="272" y="94" width="11" height="11" rx="2.5" fill="#161616"><title>2026-01-14: 0</title></rect><rect x="272" y="108" width="11" height="11" rx="2.5" fill="#161616"><title>2026-01-15: 0</title></rect><rect x="272" y="122" width="11" height="11" rx="2.5" fill="#8c141d"><title>2026-01-16: 4</title></rect><rect x="272" y="136" width="11" height="11" rx="2.5" fill="#161616"><title>2026-01-17: 0</title></rect><rect x="286" y="52" width="11" height="11" rx="2.5" fill="#161616"><title>2026-01-18: 0</title></rect><rect x="286" y="66" width="11" height="11" rx="2.5" fill="#161616"><title>2026-01-19: 0</title></rect><rect x="286" y="80" width="11" height="11" rx="2.5" fill="#161616"><title>2026-01-20: 0</title></rect><rect x="286" y="94" width="11" height="11" rx="2.5" fill="#161616"><title>2026-01-21: 0</title></rect><rect x="286" y="108" width="11" height="11" rx="2.5" fill="#161616"><title>2026-01-22: 0</title></rect><rect x="286" y="122" width="11" height="11" rx="2.5" fill="#161616"><title>2026-01-23: 0</title></rect><rect x="286" y="136" width="11" height="11" rx="2.5" fill="#161616"><title>2026-01-24: 0</title></rect><rect x="300" y="52" width="11" height="11" rx="2.5" fill="#161616"><title>2026-01-25: 0</title></rect><rect x="300" y="66" width="11" height="11" rx="2.5" fill="#161616"><title>2026-01-26: 0</title></rect><rect x="300" y="80" width="11" height="11" rx="2.5" fill="#161616"><title>2026-01-27: 0</title></rect><rect x="300" y="94" width="11" height="11" rx="2.5" fill="#161616"><title>2026-01-28: 0</title></rect><rect x="300" y="108" width="11" height="11" rx="2.5" fill="#161616"><title>2026-01-29: 0</title></rect><rect x="300" y="122" width="11" height="11" rx="2.5" fill="#4a0f14"><title>2026-01-30: 1</title></rect><rect x="300" y="136" width="11" height="11" rx="2.5" fill="#161616"><title>2026-01-31: 0</title></rect><text x="314" y="44" fill="#8c8c8c" font-size="10">Feb</text><rect x="314" y="52" width="11" height="11" rx="2.5" fill="#161616"><title>2026-02-01: 0</title></rect><rect x="314" y="66" width="11" height="11" rx="2.5" fill="#161616"><title>2026-02-02: 0</title></rect><rect x="314" y="80" width="11" height="11" rx="2.5" fill="#161616"><title>2026-02-03: 0</title></rect><rect x="314" y="94" width="11" height="11" rx="2.5" fill="#cc1a26"><title>2026-02-04: 12</title></rect><rect x="314" y="108" width="11" height="11" rx="2.5" fill="#8c141d"><title>2026-02-05: 5</title></rect><rect x="314" y="122" width="11" height="11" rx="2.5" fill="#161616"><title>2026-02-06: 0</title></rect><rect x="314" y="136" width="11" height="11" rx="2.5" fill="#161616"><title>2026-02-07: 0</title></rect><rect x="328" y="52" width="11" height="11" rx="2.5" fill="#161616"><title>2026-02-08: 0</title></rect><rect x="328" y="66" width="11" height="11" rx="2.5" fill="#161616"><title>2026-02-09: 0</title></rect><rect x="328" y="80" width="11" height="11" rx="2.5" fill="#161616"><title>2026-02-10: 0</title></rect><rect x="328" y="94" width="11" height="11" rx="2.5" fill="#161616"><title>2026-02-11: 0</title></rect><rect x="328" y="108" width="11" height="11" rx="2.5" fill="#8c141d"><title>2026-02-12: 3</title></rect><rect x="328" y="122" width="11" height="11" rx="2.5" fill="#161616"><title>2026-02-13: 0</title></rect><rect x="328" y="136" width="11" height="11" rx="2.5" fill="#4a0f14"><title>2026-02-14: 1</title></rect><rect x="342" y="52" width="11" height="11" rx="2.5" fill="#8c141d"><title>2026-02-15: 5</title></rect><rect x="342" y="66" width="11" height="11" rx="2.5" fill="#cc1a26"><title>2026-02-16: 6</title></rect><rect x="342" y="80" width="11" height="11" rx="2.5" fill="#4a0f14"><title>2026-02-17: 1</title></rect><rect x="342" y="94" width="11" height="11" rx="2.5" fill="#161616"><title>2026-02-18: 0</title></rect><rect x="342" y="108" width="11" height="11" rx="2.5" fill="#4a0f14"><title>2026-02-19: 1</title></rect><rect x="342" y="122" width="11" height="11" rx="2.5" fill="#161616"><title>2026-02-20: 0</title></rect><rect x="342" y="136" width="11" height="11" rx="2.5" fill="#161616"><title>2026-02-21: 0</title></rect><rect x="356" y="52" width="11" height="11" rx="2.5" fill="#161616"><title>2026-02-22: 0</title></rect><rect x="356" y="66" width="11" height="11" rx="2.5" fill="#161616"><title>2026-02-23: 0</title></rect><rect x="356" y="80" width="11" height="11" rx="2.5" fill="#161616"><title>2026-02-24: 0</title></rect><rect x="356" y="94" width="11" height="11" rx="2.5" fill="#161616"><title>2026-02-25: 0</title></rect><rect x="356" y="108" width="11" height="11" rx="2.5" fill="#161616"><title>2026-02-26: 0</title></rect><rect x="356" y="122" width="11" height="11" rx="2.5" fill="#161616"><title>2026-02-27: 0</title></rect><rect x="356" y="136" width="11" height="11" rx="2.5" fill="#161616"><title>2026-02-28: 0</title></rect><text x="370" y="44" fill="#8c8c8c" font-size="10">Mar</text><rect x="370" y="52" width="11" height="11" rx="2.5" fill="#161616"><title>2026-03-01: 0</title></rect><rect x="370" y="66" width="11" height="11" rx="2.5" fill="#8c141d"><title>2026-03-02: 3</title></rect><rect x="370" y="80" width="11" height="11" rx="2.5" fill="#4a0f14"><title>2026-03-03: 1</title></rect><rect x="370" y="94" width="11" height="11" rx="2.5" fill="#4a0f14"><title>2026-03-04: 2</title></rect><rect x="370" y="108" width="11" height="11" rx="2.5" fill="#161616"><title>2026-03-05: 0</title></rect><rect x="370" y="122" width="11" height="11" rx="2.5" fill="#161616"><title>2026-03-06: 0</title></rect><rect x="370" y="136" width="11" height="11" rx="2.5" fill="#161616"><title>2026-03-07: 0</title></rect><rect x="384" y="52" width="11" height="11" rx="2.5" fill="#161616"><title>2026-03-08: 0</title></rect><rect x="384" y="66" width="11" height="11" rx="2.5" fill="#161616"><title>2026-03-09: 0</title></rect><rect x="384" y="80" width="11" height="11" rx="2.5" fill="#161616"><title>2026-03-10: 0</title></rect><rect x="384" y="94" width="11" height="11" rx="2.5" fill="#161616"><title>2026-03-11: 0</title></rect><rect x="384" y="108" width="11" height="11" rx="2.5" fill="#161616"><title>2026-03-12: 0</title></rect><rect x="384" y="122" width="11" height="11" rx="2.5" fill="#161616"><title>2026-03-13: 0</title></rect><rect x="384" y="136" width="11" height="11" rx="2.5" fill="#161616"><title>2026-03-14: 0</title></rect><rect x="398" y="52" width="11" height="11" rx="2.5" fill="#161616"><title>2026-03-15: 0</title></rect><rect x="398" y="66" width="11" height="11" rx="2.5" fill="#161616"><title>2026-03-16: 0</title></rect><rect x="398" y="80" width="11" height="11" rx="2.5" fill="#161616"><title>2026-03-17: 0</title></rect><rect x="398" y="94" width="11" height="11" rx="2.5" fill="#4a0f14"><title>2026-03-18: 2</title></rect><rect x="398" y="108" width="11" height="11" rx="2.5" fill="#161616"><title>2026-03-19: 0</title></rect><rect x="398" y="122" width="11" height="11" rx="2.5" fill="#161616"><title>2026-03-20: 0</title></rect><rect x="398" y="136" width="11" height="11" rx="2.5" fill="#161616"><title>2026-03-21: 0</title></rect><rect x="412" y="52" width="11" height="11" rx="2.5" fill="#161616"><title>2026-03-22: 0</title></rect><rect x="412" y="66" width="11" height="11" rx="2.5" fill="#161616"><title>2026-03-23: 0</title></rect><rect x="412" y="80" width="11" height="11" rx="2.5" fill="#161616"><title>2026-03-24: 0</title></rect><rect x="412" y="94" width="11" height="11" rx="2.5" fill="#161616"><title>2026-03-25: 0</title></rect><rect x="412" y="108" width="11" height="11" rx="2.5" fill="#161616"><title>2026-03-26: 0</title></rect><rect x="412" y="122" width="11" height="11" rx="2.5" fill="#161616"><title>2026-03-27: 0</title></rect><rect x="412" y="136" width="11" height="11" rx="2.5" fill="#cc1a26"><title>2026-03-28: 6</title></rect><rect x="426" y="52" width="11" height="11" rx="2.5" fill="#4a0f14"><title>2026-03-29: 1</title></rect><rect x="426" y="66" width="11" height="11" rx="2.5" fill="#8c141d"><title>2026-03-30: 5</title></rect><rect x="426" y="80" width="11" height="11" rx="2.5" fill="#161616"><title>2026-03-31: 0</title></rect><rect x="426" y="94" width="11" height="11" rx="2.5" fill="#161616"><title>2026-04-01: 0</title></rect><rect x="426" y="108" width="11" height="11" rx="2.5" fill="#161616"><title>2026-04-02: 0</title></rect><rect x="426" y="122" width="11" height="11" rx="2.5" fill="#161616"><title>2026-04-03: 0</title></rect><rect x="426" y="136" width="11" height="11" rx="2.5" fill="#161616"><title>2026-04-04: 0</title></rect><text x="440" y="44" fill="#8c8c8c" font-size="10">Apr</text><rect x="440" y="52" width="11" height="11" rx="2.5" fill="#161616"><title>2026-04-05: 0</title></rect><rect x="440" y="66" width="11" height="11" rx="2.5" fill="#161616"><title>2026-04-06: 0</title></rect><rect x="440" y="80" width="11" height="11" rx="2.5" fill="#161616"><title>2026-04-07: 0</title></rect><rect x="440" y="94" width="11" height="11" rx="2.5" fill="#cc1a26"><title>2026-04-08: 16</title></rect><rect x="440" y="108" width="11" height="11" rx="2.5" fill="#ff3b45"><title>2026-04-09: 41</title></rect><rect x="440" y="122" width="11" height="11" rx="2.5" fill="#cc1a26"><title>2026-04-10: 16</title></rect><rect x="440" y="136" width="11" height="11" rx="2.5" fill="#cc1a26"><title>2026-04-11: 16</title></rect><rect x="454" y="52" width="11" height="11" rx="2.5" fill="#161616"><title>2026-04-12: 0</title></rect><rect x="454" y="66" width="11" height="11" rx="2.5" fill="#161616"><title>2026-04-13: 0</title></rect><rect x="454" y="80" width="11" height="11" rx="2.5" fill="#161616"><title>2026-04-14: 0</title></rect><rect x="454" y="94" width="11" height="11" rx="2.5" fill="#161616"><title>2026-04-15: 0</title></rect><rect x="454" y="108" width="11" height="11" rx="2.5" fill="#cc1a26"><title>2026-04-16: 11</title></rect><rect x="454" y="122" width="11" height="11" rx="2.5" fill="#4a0f14"><title>2026-04-17: 1</title></rect><rect x="454" y="136" width="11" height="11" rx="2.5" fill="#8c141d"><title>2026-04-18: 5</title></rect><rect x="468" y="52" width="11" height="11" rx="2.5" fill="#cc1a26"><title>2026-04-19: 7</title></rect><rect x="468" y="66" width="11" height="11" rx="2.5" fill="#8c141d"><title>2026-04-20: 3</title></rect><rect x="468" y="80" width="11" height="11" rx="2.5" fill="#4a0f14"><title>2026-04-21: 1</title></rect><rect x="468" y="94" width="11" height="11" rx="2.5" fill="#cc1a26"><title>2026-04-22: 14</title></rect><rect x="468" y="108" width="11" height="11" rx="2.5" fill="#4a0f14"><title>2026-04-23: 2</title></rect><rect x="468" y="122" width="11" height="11" rx="2.5" fill="#ff3b45"><title>2026-04-24: 47</title></rect><rect x="468" y="136" width="11" height="11" rx="2.5" fill="#ff3b45"><title>2026-04-25: 31</title></rect><rect x="482" y="52" width="11" height="11" rx="2.5" fill="#ff3b45"><title>2026-04-26: 27</title></rect><rect x="482" y="66" width="11" height="11" rx="2.5" fill="#ff3b45"><title>2026-04-27: 25</title></rect><rect x="482" y="80" width="11" height="11" rx="2.5" fill="#ff3b45"><title>2026-04-28: 18</title></rect><rect x="482" y="94" width="11" height="11" rx="2.5" fill="#161616"><title>2026-04-29: 0</title></rect><rect x="482" y="108" width="11" height="11" rx="2.5" fill="#8c141d"><title>2026-04-30: 4</title></rect><rect x="482" y="122" width="11" height="11" rx="2.5" fill="#8c141d"><title>2026-05-01: 3</title></rect><rect x="482" y="136" width="11" height="11" rx="2.5" fill="#ff3b45"><title>2026-05-02: 22</title></rect><text x="496" y="44" fill="#8c8c8c" font-size="10">May</text><rect x="496" y="52" width="11" height="11" rx="2.5" fill="#cc1a26"><title>2026-05-03: 7</title></rect><rect x="496" y="66" width="11" height="11" rx="2.5" fill="#cc1a26"><title>2026-05-04: 16</title></rect><rect x="496" y="80" width="11" height="11" rx="2.5" fill="#cc1a26"><title>2026-05-05: 10</title></rect><rect x="496" y="94" width="11" height="11" rx="2.5" fill="#cc1a26"><title>2026-05-06: 15</title></rect><rect x="496" y="108" width="11" height="11" rx="2.5" fill="#cc1a26"><title>2026-05-07: 16</title></rect><rect x="496" y="122" width="11" height="11" rx="2.5" fill="#cc1a26"><title>2026-05-08: 7</title></rect><rect x="496" y="136" width="11" height="11" rx="2.5" fill="#8c141d"><title>2026-05-09: 3</title></rect><rect x="510" y="52" width="11" height="11" rx="2.5" fill="#161616"><title>2026-05-10: 0</title></rect><rect x="510" y="66" width="11" height="11" rx="2.5" fill="#4a0f14"><title>2026-05-11: 1</title></rect><rect x="510" y="80" width="11" height="11" rx="2.5" fill="#161616"><title>2026-05-12: 0</title></rect><rect x="510" y="94" width="11" height="11" rx="2.5" fill="#8c141d"><title>2026-05-13: 3</title></rect><rect x="510" y="108" width="11" height="11" rx="2.5" fill="#8c141d"><title>2026-05-14: 5</title></rect><rect x="510" y="122" width="11" height="11" rx="2.5" fill="#4a0f14"><title>2026-05-15: 1</title></rect><rect x="510" y="136" width="11" height="11" rx="2.5" fill="#161616"><title>2026-05-16: 0</title></rect><rect x="524" y="52" width="11" height="11" rx="2.5" fill="#161616"><title>2026-05-17: 0</title></rect><rect x="524" y="66" width="11" height="11" rx="2.5" fill="#161616"><title>2026-05-18: 0</title></rect><rect x="524" y="80" width="11" height="11" rx="2.5" fill="#161616"><title>2026-05-19: 0</title></rect><rect x="524" y="94" width="11" height="11" rx="2.5" fill="#cc1a26"><title>2026-05-20: 9</title></rect><rect x="524" y="108" width="11" height="11" rx="2.5" fill="#8c141d"><title>2026-05-21: 3</title></rect><rect x="524" y="122" width="11" height="11" rx="2.5" fill="#ff3b45"><title>2026-05-22: 63</title></rect><rect x="524" y="136" width="11" height="11" rx="2.5" fill="#cc1a26"><title>2026-05-23: 16</title></rect><rect x="538" y="52" width="11" height="11" rx="2.5" fill="#cc1a26"><title>2026-05-24: 8</title></rect><rect x="538" y="66" width="11" height="11" rx="2.5" fill="#8c141d"><title>2026-05-25: 4</title></rect><rect x="538" y="80" width="11" height="11" rx="2.5" fill="#4a0f14"><title>2026-05-26: 1</title></rect><rect x="538" y="94" width="11" height="11" rx="2.5" fill="#161616"><title>2026-05-27: 0</title></rect><rect x="538" y="108" width="11" height="11" rx="2.5" fill="#161616"><title>2026-05-28: 0</title></rect><rect x="538" y="122" width="11" height="11" rx="2.5" fill="#161616"><title>2026-05-29: 0</title></rect><rect x="538" y="136" width="11" height="11" rx="2.5" fill="#161616"><title>2026-05-30: 0</title></rect><rect x="552" y="52" width="11" height="11" rx="2.5" fill="#161616"><title>2026-05-31: 0</title></rect><rect x="552" y="66" width="11" height="11" rx="2.5" fill="#ff3b45"><title>2026-06-01: 44</title></rect><rect x="552" y="80" width="11" height="11" rx="2.5" fill="#cc1a26"><title>2026-06-02: 11</title></rect><rect x="552" y="94" width="11" height="11" rx="2.5" fill="#ff3b45"><title>2026-06-03: 17</title></rect><rect x="552" y="108" width="11" height="11" rx="2.5" fill="#cc1a26"><title>2026-06-04: 13</title></rect><rect x="552" y="122" width="11" height="11" rx="2.5" fill="#ff3b45"><title>2026-06-05: 25</title></rect><rect x="552" y="136" width="11" height="11" rx="2.5" fill="#161616"><title>2026-06-06: 0</title></rect><text x="566" y="44" fill="#8c8c8c" font-size="10">Jun</text><rect x="566" y="52" width="11" height="11" rx="2.5" fill="#4a0f14"><title>2026-06-07: 2</title></rect><rect x="566" y="66" width="11" height="11" rx="2.5" fill="#cc1a26"><title>2026-06-08: 13</title></rect><rect x="566" y="80" width="11" height="11" rx="2.5" fill="#161616"><title>2026-06-09: 0</title></rect><rect x="566" y="94" width="11" height="11" rx="2.5" fill="#4a0f14"><title>2026-06-10: 1</title></rect><rect x="566" y="108" width="11" height="11" rx="2.5" fill="#161616"><title>2026-06-11: 0</title></rect><rect x="566" y="122" width="11" height="11" rx="2.5" fill="#4a0f14"><title>2026-06-12: 1</title></rect><rect x="566" y="136" width="11" height="11" rx="2.5" fill="#cc1a26"><title>2026-06-13: 14</title></rect><rect x="580" y="52" width="11" height="11" rx="2.5" fill="#cc1a26"><title>2026-06-14: 11</title></rect><rect x="580" y="66" width="11" height="11" rx="2.5" fill="#4a0f14"><title>2026-06-15: 2</title></rect><rect x="580" y="80" width="11" height="11" rx="2.5" fill="#161616"><title>2026-06-16: 0</title></rect><rect x="580" y="94" width="11" height="11" rx="2.5" fill="#161616"><title>2026-06-17: 0</title></rect><rect x="580" y="108" width="11" height="11" rx="2.5" fill="#161616"><title>2026-06-18: 0</title></rect><rect x="580" y="122" width="11" height="11" rx="2.5" fill="#161616"><title>2026-06-19: 0</title></rect><rect x="580" y="136" width="11" height="11" rx="2.5" fill="#161616"><title>2026-06-20: 0</title></rect><rect x="594" y="52" width="11" height="11" rx="2.5" fill="#161616"><title>2026-06-21: 0</title></rect><rect x="594" y="66" width="11" height="11" rx="2.5" fill="#161616"><title>2026-06-22: 0</title></rect><rect x="594" y="80" width="11" height="11" rx="2.5" fill="#161616"><title>2026-06-23: 0</title></rect><rect x="594" y="94" width="11" height="11" rx="2.5" fill="#8c141d"><title>2026-06-24: 5</title></rect><rect x="594" y="108" width="11" height="11" rx="2.5" fill="#8c141d"><title>2026-06-25: 4</title></rect><rect x="594" y="122" width="11" height="11" rx="2.5" fill="#161616"><title>2026-06-26: 0</title></rect><rect x="594" y="136" width="11" height="11" rx="2.5" fill="#161616"><title>2026-06-27: 0</title></rect><rect x="608" y="52" width="11" height="11" rx="2.5" fill="#161616"><title>2026-06-28: 0</title></rect><rect x="608" y="66" width="11" height="11" rx="2.5" fill="#161616"><title>2026-06-29: 0</title></rect><rect x="608" y="80" width="11" height="11" rx="2.5" fill="#161616"><title>2026-06-30: 0</title></rect><rect x="608" y="94" width="11" height="11" rx="2.5" fill="#161616"><title>2026-07-01: 0</title></rect><rect x="608" y="108" width="11" height="11" rx="2.5" fill="#161616"><title>2026-07-02: 0</title></rect><rect x="608" y="122" width="11" height="11" rx="2.5" fill="#161616"><title>2026-07-03: 0</title></rect><rect x="608" y="136" width="11" height="11" rx="2.5" fill="#161616"><title>2026-07-04: 0</title></rect><text x="622" y="44" fill="#8c8c8c" font-size="10">Jul</text><rect x="622" y="52" width="11" height="11" rx="2.5" fill="#161616"><title>2026-07-05: 0</title></rect><rect x="622" y="66" width="11" height="11" rx="2.5" fill="#161616"><title>2026-07-06: 0</title></rect><rect x="622" y="80" width="11" height="11" rx="2.5" fill="#161616"><title>2026-07-07: 0</title></rect><rect x="622" y="94" width="11" height="11" rx="2.5" fill="#cc1a26"><title>2026-07-08: 10</title></rect><rect x="622" y="108" width="11" height="11" rx="2.5" fill="#ff3b45"><title>2026-07-09: 23</title></rect><rect x="622" y="122" width="11" height="11" rx="2.5" fill="#161616"><title>2026-07-10: 0</title></rect><rect x="622" y="136" width="11" height="11" rx="2.5" fill="#cc1a26"><title>2026-07-11: 6</title></rect><rect x="636" y="52" width="11" height="11" rx="2.5" fill="#161616"><title>2026-07-12: 0</title></rect><rect x="636" y="66" width="11" height="11" rx="2.5" fill="#8c141d"><title>2026-07-13: 5</title></rect><rect x="636" y="80" width="11" height="11" rx="2.5" fill="#8c141d"><title>2026-07-14: 4</title></rect><rect x="636" y="94" width="11" height="11" rx="2.5" fill="#ff3b45"><title>2026-07-15: 17</title></rect><rect x="636" y="108" width="11" height="11" rx="2.5" fill="#ff3b45"><title>2026-07-16: 34</title></rect><rect x="636" y="122" width="11" height="11" rx="2.5" fill="#cc1a26"><title>2026-07-17: 8</title></rect><rect x="636" y="136" width="11" height="11" rx="2.5" fill="#4a0f14"><title>2026-07-18: 2</title></rect><rect x="650" y="52" width="11" height="11" rx="2.5" fill="#cc1a26"><title>2026-07-19: 12</title></rect><rect x="650" y="66" width="11" height="11" rx="2.5" fill="#8c141d"><title>2026-07-20: 3</title></rect><rect x="650" y="80" width="11" height="11" rx="2.5" fill="#4a0f14"><title>2026-07-21: 1</title></rect><rect x="650" y="94" width="11" height="11" rx="2.5" fill="#cc1a26"><title>2026-07-22: 16</title></rect><rect x="650" y="108" width="11" height="11" rx="2.5" fill="#cc1a26"><title>2026-07-23: 7</title></rect><rect x="650" y="122" width="11" height="11" rx="2.5" fill="#cc1a26"><title>2026-07-24: 8</title></rect><rect x="650" y="136" width="11" height="11" rx="2.5" fill="#161616"><title>2026-07-25: 0</title></rect><rect x="664" y="52" width="11" height="11" rx="2.5" fill="#8c141d"><title>2026-07-26: 5</title></rect><rect x="664" y="66" width="11" height="11" rx="2.5" fill="#cc1a26"><title>2026-07-27: 9</title></rect><rect x="664" y="80" width="11" height="11" rx="2.5" fill="#161616"><title>2026-07-28: 0</title></rect><rect x="664" y="94" width="11" height="11" rx="2.5" fill="#161616"><title>2026-07-29: 0</title></rect><rect x="664" y="108" width="11" height="11" rx="2.5" fill="#161616"><title>2026-07-30: 0</title></rect><rect x="664" y="122" width="11" height="11" rx="2.5" fill="#4a0f14"><title>2026-07-31: 2</title></rect><rect x="664" y="136" width="11" height="11" rx="2.5" fill="#8c141d"><title>2026-08-01: 3</title></rect><text x="678" y="44" fill="#8c8c8c" font-size="10">Aug</text><rect x="678" y="52" width="11" height="11" rx="2.5" fill="#161616"><title>2026-08-02: 0</title></rect><rect x="678" y="66" width="11" height="11" rx="2.5" fill="#4a0f14"><title>2026-08-03: 2</title></rect><rect x="678" y="80" width="11" height="11" rx="2.5" fill="#cc1a26"><title>2026-08-04: 13</title></rect><rect x="678" y="94" width="11" height="11" rx="2.5" fill="#4a0f14"><title>2026-08-05: 2</title></rect><rect x="678" y="108" width="11" height="11" rx="2.5" fill="#161616"><title>2026-08-06: 0</title></rect><rect x="678" y="122" width="11" height="11" rx="2.5" fill="#8c141d"><title>2026-08-07: 5</title></rect><rect x="678" y="136" width="11" height="11" rx="2.5" fill="#8c141d"><title>2026-08-08: 4</title></rect><rect x="692" y="52" width="11" height="11" rx="2.5" fill="#8c141d"><title>2026-08-09: 3</title></rect><rect x="692" y="66" width="11" height="11" rx="2.5" fill="#161616"><title>2026-08-10: 0</title></rect><rect x="692" y="80" width="11" height="11" rx="2.5" fill="#161616"><title>2026-08-11: 0</title></rect><rect x="692" y="94" width="11" height="11" rx="2.5" fill="#161616"><title>2026-08-12: 0</title></rect><rect x="692" y="108" width="11" height="11" rx="2.5" fill="#161616"><title>2026-08-13: 0</title></rect><rect x="692" y="122" width="11" height="11" rx="2.5" fill="#161616"><title>2026-08-14: 0</title></rect><rect x="692" y="136" width="11" height="11" rx="2.5" fill="#161616"><title>2026-08-15: 0</title></rect><rect x="706" y="52" width="11" height="11" rx="2.5" fill="#161616"><title>2026-08-16: 0</title></rect><rect x="706" y="66" width="11" height="11" rx="2.5" fill="#161616"><title>2026-08-17: 0</title></rect><rect x="706" y="80" width="11" height="11" rx="2.5" fill="#4a0f14"><title>2026-08-18: 1</title></rect><rect x="706" y="94" width="11" height="11" rx="2.5" fill="#161616"><title>2026-08-19: 0</title></rect><rect x="706" y="108" width="11" height="11" rx="2.5" fill="#161616"><title>2026-08-20: 0</title></rect><rect x="706" y="122" width="11" height="11" rx="2.5" fill="#161616"><title>2026-08-21: 0</title></rect><rect x="706" y="136" width="11" height="11" rx="2.5" fill="#161616"><title>2026-08-22: 0</title></rect><rect x="720" y="52" width="11" height="11" rx="2.5" fill="#161616"><title>2026-08-23: 0</title></rect><rect x="720" y="66" width="11" height="11" rx="2.5" fill="#161616"><title>2026-08-24: 0</title></rect><rect x="720" y="80" width="11" height="11" rx="2.5" fill="#161616"><title>2026-08-25: 0</title></rect><rect x="720" y="94" width="11" height="11" rx="2.5" fill="#161616"><title>2026-08-26: 0</title></rect><rect x="720" y="108" width="11" height="11" rx="2.5" fill="#161616"><title>2026-08-27: 0</title></rect><rect x="720" y="122" width="11" height="11" rx="2.5" fill="#161616"><title>2026-08-28: 0</title></rect><rect x="720" y="136" width="11" height="11" rx="2.5" fill="#161616"><title>2026-08-29: 0</title></rect><rect x="734" y="52" width="11" height="11" rx="2.5" fill="#161616"><title>2026-08-30: 0</title></rect><rect x="734" y="66" width="11" height="11" rx="2.5" fill="#161616"><title>2026-08-31: 0</title></rect><rect x="734" y="80" width="11" height="11" rx="2.5" fill="#161616"><title>2026-09-01: 0</title></rect><rect x="734" y="94" width="11" height="11" rx="2.5" fill="#161616"><title>2026-09-02: 0</title></rect><rect x="734" y="108" width="11" height="11" rx="2.5" fill="#161616"><title>2026-09-03: 0</title></rect><rect x="734" y="122" width="11" height="11" rx="2.5" fill="#161616"><title>2026-09-04: 0</title></rect><rect x="734" y="136" width="11" height="11" rx="2.5" fill="#161616"><title>2026-09-05: 0</title></rect><rect x="748" y="52" width="11" height="11" rx="2.5" fill="#161616"><title>2026-09-06: 0</title></rect><rect x="748" y="66" width="11" height="11" rx="2.5" fill="#161616"><title>2026-09-07: 0</title></rect><rect x="748" y="80" width="11" height="11" rx="2.5" fill="#161616"><title>2026-09-08: 0</title></rect><rect x="748" y="94" width="11" height="11" rx="2.5" fill="#161616"><title>2026-09-09: 0</title></rect><rect x="748" y="108" width="11" height="11" rx="2.5" fill="#161616"><title>2026-09-10: 0</title></rect><rect x="748" y="122" width="11" height="11" rx="2.5" fill="#161616"><title>2026-09-11: 0</title></rect><rect x="748" y="136" width="11" height="11" rx="2.5" fill="#8c141d"><title>2026-09-12: 3</title></rect><rect x="762" y="52" width="11" height="11" rx="2.5" fill="#4a0f14"><title>2026-09-13: 2</title></rect><rect x="762" y="66" width="11" height="11" rx="2.5" fill="#4a0f14"><title>2026-09-14: 1</title></rect><rect x="762" y="80" width="11" height="11" rx="2.5" fill="#4a0f14"><title>2026-09-15: 1</title></rect><text x="6" y="75" fill="#8c8c8c" font-size="9">Mon</text><text x="6" y="103" fill="#8c8c8c" font-size="9">Wed</text><text x="6" y="131" fill="#8c8c8c" font-size="9">Fri</text><text x="676" y="177" fill="#8c8c8c" font-size="10" text-anchor="end">Less</text><rect x="682" y="168" width="11" height="11" rx="2.5" fill="#161616"/><rect x="696" y="168" width="11" height="11" rx="2.5" fill="#4a0f14"/><rect x="710" y="168" width="11" height="11" rx="2.5" fill="#8c141d"/><rect x="724" y="168" width="11" height="11" rx="2.5" fill="#cc1a26"/><rect x="738" y="168" width="11" height="11" rx="2.5" fill="#ff3b45"/><text x="756" y="177" fill="#8c8c8c" font-size="10">More</text></svg>